<svg width="30" height="30" viewBox="0 0 30 30" fill="none" xmlns="http://www.w3.org/2000/svg">
<g clip-path="url(#clip0_4441_8511)">
<path d="M15.0001 16.25C17.0713 16.25 18.7501 17.9287 18.7501 20C18.7501 21.0625 18.3088 22.02 17.6001 22.7025L15.2126 25H18.7501V27.5H11.2501V25.345L15.8663 20.9012C16.1038 20.6725 16.2501 20.3537 16.2501 20C16.2501 19.31 15.6901 18.75 15.0001 18.75C14.3101 18.75 13.7501 19.31 13.7501 20H11.2501C11.2501 17.9287 12.9288 16.25 15.0001 16.25ZM22.5001 16.25V21.25H25.0001V16.25H27.5001V27.5H25.0001V23.75H20.0001V16.25H22.5001ZM5.00006 15C5.00006 18.1587 6.46381 20.975 8.75006 22.8075V25.8275C5.01381 23.6662 2.50006 19.6275 2.50006 15H5.00006ZM15.0001 2.5C21.4813 2.5 26.8113 7.43375 27.4376 13.75H24.9226C24.3076 8.8175 20.1001 5 15.0001 5C11.5626 5 8.53006 6.73375 6.73131 9.375H10.0001V11.875H2.50006V4.375H5.00006V7.5C7.28006 4.4625 10.9113 2.5 15.0001 2.5Z" fill="#002A46"/>
</g>
<defs>
<clipPath id="clip0_4441_8511">
<rect width="30" height="30" fill="white"/>
</clipPath>
</defs>
</svg>
