<svg width="30" height="30" viewBox="0 0 30 30" fill="none" xmlns="http://www.w3.org/2000/svg">
<g clip-path="url(#clip0_4441_8503)">
<path d="M21.2499 19.0563V27.6463C21.25 27.7569 21.2206 27.8655 21.165 27.961C21.1093 28.0566 21.0293 28.1356 20.9331 28.1902C20.8369 28.2447 20.7279 28.2727 20.6174 28.2714C20.5068 28.27 20.3985 28.2394 20.3037 28.1825L14.9999 25L9.69619 28.1825C9.60124 28.2394 9.49289 28.2701 9.38221 28.2714C9.27153 28.2727 9.16249 28.2445 9.06624 28.1899C8.97 28.1352 8.89 28.0559 8.83442 27.9602C8.77885 27.8645 8.74969 27.7557 8.74994 27.645V19.0575C7.13262 17.7626 5.95743 15.9974 5.38676 14.0057C4.8161 12.014 4.87813 9.89427 5.5643 7.93937C6.25047 5.98447 7.52689 4.29096 9.21717 3.09288C10.9074 1.89479 12.9281 1.25128 14.9999 1.25128C17.0718 1.25128 19.0924 1.89479 20.7827 3.09288C22.473 4.29096 23.7494 5.98447 24.4356 7.93937C25.1217 9.89427 25.1838 12.014 24.6131 14.0057C24.0424 15.9974 22.8673 17.7626 21.2499 19.0575V19.0563ZM11.2499 20.5225V24.335L14.9999 22.085L18.7499 24.335V20.5225C17.5585 21.0044 16.2851 21.2514 14.9999 21.25C13.7147 21.2514 12.4414 21.0044 11.2499 20.5225ZM14.9999 18.75C16.9891 18.75 18.8967 17.9599 20.3032 16.5533C21.7098 15.1468 22.4999 13.2392 22.4999 11.25C22.4999 9.26091 21.7098 7.35325 20.3032 5.94673C18.8967 4.54021 16.9891 3.75003 14.9999 3.75003C13.0108 3.75003 11.1032 4.54021 9.69664 5.94673C8.29012 7.35325 7.49994 9.26091 7.49994 11.25C7.49994 13.2392 8.29012 15.1468 9.69664 16.5533C11.1032 17.9599 13.0108 18.75 14.9999 18.75Z" fill="#002A46"/>
</g>
<defs>
<clipPath id="clip0_4441_8503">
<rect width="30" height="30" fill="white"/>
</clipPath>
</defs>
</svg>
