<svg width="30" height="30" viewBox="0 0 30 30" fill="none" xmlns="http://www.w3.org/2000/svg">
<g clip-path="url(#clip0_4441_8471)">
<path d="M22.955 13.725C24.9075 15.6762 24.9075 18.8425 22.955 20.795L15.8838 27.8662C15.3963 28.3537 14.6038 28.3537 14.1163 27.8662L7.045 20.795C5.0925 18.8425 5.0925 15.6763 7.045 13.7238C8.9975 11.7713 12.1638 11.7713 14.1163 13.7238L14.9988 14.6075L15.8838 13.7238C17.8363 11.7713 21.0025 11.7713 22.955 13.7238V13.725ZM8.8125 15.49C7.8375 16.4663 7.8375 18.05 8.8125 19.0262L15 25.2137L21.1875 19.0262C22.1625 18.05 22.1625 16.4663 21.1875 15.49C20.2113 14.515 18.6275 14.515 17.65 15.4925L14.9975 18.14L12.3475 15.49C11.3725 14.515 9.78875 14.515 8.8125 15.49V15.49ZM15 1.25C17.7625 1.25 20 3.4875 20 6.25C20 9.0125 17.7625 11.25 15 11.25C12.2375 11.25 10 9.0125 10 6.25C10 3.4875 12.2375 1.25 15 1.25ZM15 3.75C13.6188 3.75 12.5 4.86875 12.5 6.25C12.5 7.63125 13.6188 8.75 15 8.75C16.3813 8.75 17.5 7.63125 17.5 6.25C17.5 4.86875 16.3813 3.75 15 3.75Z" fill="#002A46"/>
</g>
<defs>
<clipPath id="clip0_4441_8471">
<rect width="30" height="30" fill="white"/>
</clipPath>
</defs>
</svg>
