<svg width="30" height="30" viewBox="0 0 30 30" fill="none" xmlns="http://www.w3.org/2000/svg">
<g clip-path="url(#clip0_4441_8479)">
<path d="M24.0537 5.94622C25.8812 7.77872 26.5687 10.3125 26.1162 12.6712C26.8262 12.8712 27.4987 13.25 28.0587 13.8062C29.8137 15.5487 29.8137 18.3737 28.0587 20.115L21.25 26.875L17.4725 23.125L13.75 26.8562L3.15 16.2412C0.521248 13.2962 0.619998 8.77372 3.44625 5.94622C6.2775 3.11623 10.8062 3.02122 13.7512 5.66122C16.6875 3.02497 21.225 3.11248 24.0537 5.94622V5.94622ZM16.2025 15.5812C15.4325 16.345 15.4325 17.5775 16.2025 18.3412L21.25 23.3525L26.2975 18.3412C27.0675 17.5775 27.0675 16.345 26.2975 15.5812C25.5175 14.8062 24.245 14.8062 23.4625 15.5837L21.2475 17.7762L19.4887 16.0312L19.035 15.5812C18.255 14.8062 16.9825 14.8062 16.2025 15.5812V15.5812ZM5.215 7.71497C3.3525 9.57747 3.25875 12.5587 4.975 14.5287L13.75 23.3175L15.6987 21.365L14.4412 20.115C12.6862 18.3737 12.6862 15.5487 14.4412 13.8062C16.1962 12.065 19.0412 12.065 20.7962 13.8062L21.25 14.2562L21.7037 13.8062C22.235 13.28 22.8662 12.9125 23.535 12.7037C24.055 10.995 23.6325 9.06372 22.2837 7.71247C20.4087 5.83497 17.3837 5.75873 15.4212 7.52122L13.7525 9.01872L12.0825 7.52247C10.1137 5.75748 7.095 5.83497 5.215 7.71497V7.71497Z" fill="#002A46"/>
</g>
<defs>
<clipPath id="clip0_4441_8479">
<rect width="30" height="30" fill="white"/>
</clipPath>
</defs>
</svg>
