<svg width="127" height="58" viewBox="0 0 127 58" fill="none" xmlns="http://www.w3.org/2000/svg">
<path d="M79.2723 34.1056C79.2723 34.9024 79.4707 35.4821 79.8675 35.8479C80.2644 36.2138 80.8472 36.4215 81.6099 36.468C82.3725 36.5145 83.3212 36.5083 84.4527 36.4463V41.8127C80.3853 42.2716 77.5207 41.8902 75.8528 40.6657C74.1849 39.4442 73.354 37.2585 73.354 34.1087V14.2488L79.2692 12.46V34.1056H79.2723Z" fill="white"/>
<path d="M66.1893 34.1056C66.1893 34.9024 66.3877 35.4821 66.7845 35.8479C67.1814 36.2138 67.7642 36.4215 68.5268 36.468C69.2895 36.5145 70.2382 36.5083 71.3697 36.4463V41.8127C67.3023 42.2716 64.4377 41.8902 62.7698 40.6657C61.1019 39.4442 60.271 37.2585 60.271 34.1087V14.2488L66.1862 12.46V34.1056H66.1893Z" fill="white"/>
<path d="M81.6129 36.468C80.8471 36.4215 80.2674 36.2168 79.8705 35.8479C79.4737 35.4821 79.2753 34.8993 79.2753 34.1056V21.1591C77.8368 21.1188 76.4014 21.1064 74.9629 21.1653C74.4266 21.187 73.8933 21.2273 73.3601 21.2769V34.1087C73.3601 37.2585 74.1941 39.4442 75.8589 40.6656C77.5237 41.8871 80.3914 42.2716 84.4588 41.8127V36.4463C83.3273 36.5083 82.3786 36.5145 81.616 36.468H81.6129Z" fill="white"/>
<path d="M68.53 36.4679C67.7643 36.4214 67.1845 36.2168 66.7877 35.8478C66.3909 35.482 66.1925 34.8992 66.1925 34.1055V22.3464C66.0065 22.3774 65.8204 22.4084 65.6313 22.4394C64.2424 22.6627 63.0179 22.8704 62.187 23.4501C61.5453 23.8965 60.9097 24.3523 60.2742 24.8111V34.1055C60.2742 37.2553 61.1081 39.441 62.7729 40.6625C64.4377 41.8839 67.3054 42.2684 71.3729 41.8095V36.4431C70.2413 36.5051 69.2927 36.5113 68.53 36.4648V36.4679Z" fill="white"/>
<path d="M92.9411 32.7756C93.7348 35.6495 95.8925 37.0849 99.4081 37.0849C101.671 37.0849 103.383 36.3222 104.545 34.7907L109.316 37.5437C107.053 40.8144 103.721 42.4513 99.3182 42.4513C95.5267 42.4513 92.4854 41.3042 90.1912 39.0101C87.8971 36.7159 86.75 33.8265 86.75 30.3419C86.75 26.8573 87.8816 24.0051 90.1447 21.6985C92.4079 19.3889 95.3097 18.2356 98.8563 18.2356C102.22 18.2356 104.995 19.3982 107.18 21.7202C109.366 24.0454 110.46 26.9193 110.46 30.3419C110.46 31.1077 110.383 31.9168 110.231 32.7725H92.9411V32.7756ZM92.8481 28.1904H104.542C104.207 26.631 103.51 25.4684 102.456 24.7057C101.402 23.9431 100.202 23.5587 98.8563 23.5587C97.2659 23.5587 95.9514 23.9648 94.9128 24.7739C93.8743 25.5831 93.186 26.724 92.8481 28.1904Z" fill="white"/>
<path d="M113.654 29.291C113.836 21.4475 118.012 17.5505 126.129 17.5505H127V23.8781H124.935C121.54 23.8781 119.845 25.6669 119.845 29.198V41.8097H113.654V29.2879V29.291Z" fill="white"/>
<path d="M74.0267 19.5998C65.7802 19.5998 58.0265 23.5184 53.1282 30.1529L50.4775 33.7398C49.9753 34.4281 49.4018 35.0574 48.729 35.5752C46.7139 37.1098 44.6367 37.2896 42.4604 36.1363L54.3032 23.5463C53.7854 22.8488 53.2491 22.2381 52.6911 21.7172C50.1985 19.3673 47.3556 18.1985 44.1686 18.1985C40.9816 18.1985 38.2286 19.42 35.9221 21.8722C33.4915 24.4547 32.3475 27.3627 32.4746 30.59C32.6048 33.8204 33.9317 36.6199 36.446 38.9885C38.982 41.3725 41.8713 42.5196 45.1142 42.4235C47.4269 42.3491 49.6994 41.4593 51.7517 39.9495C53.0197 39.0164 54.0986 37.8569 55.0348 36.592L57.4313 33.3368C61.319 28.0695 67.476 24.9631 74.0205 24.9631H81.1107C83.8203 24.9631 86.0121 22.7713 86.0121 20.0617V19.606H74.0205L74.0267 19.5998ZM37.9868 29.2197C38.1108 27.9083 38.7122 26.6714 39.8004 25.515C40.7243 24.5322 41.8248 23.9184 43.1052 23.6766C44.3825 23.4316 45.7032 23.72 47.0704 24.5415L39.0533 33.0609C38.2193 31.8084 37.8597 30.528 37.9837 29.2166L37.9868 29.2197Z" fill="white"/>
<path d="M32.8345 33.0515C33.3956 35.262 34.5985 37.2399 36.4524 38.9822C37.0415 39.5371 37.6522 40.0208 38.2784 40.4424C38.1296 37.987 37.0694 35.7735 35.4293 34.1397C34.6884 33.4049 33.7583 33.0608 32.8345 33.0515Z" fill="white"/>
<path d="M74.0268 19.5998C65.7803 19.5998 58.0267 23.5184 53.1283 30.1529L50.4777 33.7398C49.9754 34.4281 49.4019 35.0574 48.7291 35.5752C46.714 37.1098 44.6369 37.2896 42.4605 36.1363L54.3033 23.5463C53.7856 22.8488 53.2492 22.2381 52.6912 21.7172C50.1986 19.3673 47.3557 18.1985 44.1687 18.1985C40.9817 18.1985 38.2287 19.42 35.9222 21.8722C34.09 23.8192 32.9894 25.949 32.6143 28.2649C32.9429 28.4726 33.2839 28.6617 33.6466 28.8105C35.668 29.6538 37.4289 30.9899 38.7992 32.6579C38.1481 31.5356 37.8722 30.3916 37.9838 29.2259C38.1078 27.9145 38.7093 26.6776 39.7974 25.5212C40.7213 24.5384 41.8219 23.9246 43.1023 23.6828C44.3795 23.4378 45.7002 23.7262 47.0674 24.5477L39.0968 33.0206C40.8887 35.3674 41.9149 38.3281 41.8002 41.5275C41.794 41.7012 41.7816 41.8717 41.7692 42.0453C42.8418 42.3305 43.9548 42.4576 45.1174 42.4235C47.4302 42.3491 49.7026 41.4593 51.7549 39.9495C53.0229 39.0164 54.1018 37.8569 55.0381 36.592L57.4345 33.3368C61.3222 28.0695 67.4792 24.9631 74.0237 24.9631H81.1139C83.8235 24.9631 86.0153 22.7713 86.0153 20.0617V19.606H74.0237L74.0268 19.5998Z" fill="white"/>
<path d="M99.405 37.0879C95.8894 37.0879 93.7348 35.6525 92.938 32.7786C92.938 32.7786 92.2219 41.8777 103.048 41.9955C105.652 41.301 107.738 39.8191 109.31 37.5467L104.539 34.7937C103.376 36.3221 101.665 37.0879 99.4019 37.0879H99.405Z" fill="white"/>
<path d="M113.654 31.5602V41.8095H119.845V29.1978C119.845 25.6667 121.54 23.8779 124.935 23.8779C124.935 23.8779 113.654 23.7353 113.654 31.5602Z" fill="white"/>
<path d="M6.24382 43.9361H0V0H14.3757C20.2723 0 25.0714 4.79912 25.0714 10.6957C25.0714 16.5923 20.2723 21.3914 14.3757 21.3914V15.9878C14.8686 15.9878 15.4018 15.2964 15.8452 15.1476C17.6123 14.5555 18.8276 12.6581 18.8276 10.6957C18.8276 8.24035 16.831 6.24382 14.3757 6.24382H6.24382V43.9361Z" fill="white"/>
<path d="M14.3758 0H9.04032C9.04032 2.08024 9.00002 4.16358 8.92871 6.24382H14.3758C16.8311 6.24382 18.8277 8.24035 18.8277 10.6957C18.8277 12.6581 17.6124 14.5555 15.8453 15.1476C15.4019 15.2964 14.8687 15.9878 14.3758 15.9878V21.3914C20.2724 21.3914 25.0715 16.5923 25.0715 10.6957C25.0715 4.79912 20.2724 0 14.3758 0Z" fill="white"/>
<path d="M33.3676 28.6893C31.6935 28.0352 30.348 26.7021 29.7713 24.997C27.8182 19.2182 22.2223 15.1445 15.8452 15.1445H9.9021V16.8961C9.9021 19.3763 11.9141 21.3883 14.3943 21.3883H15.9134C20.3281 21.3883 24.0918 24.8141 24.2592 29.2257C24.4359 33.8636 20.7125 37.6923 16.1149 37.6923H14.3943C11.9141 37.6923 9.9021 39.7044 9.9021 42.1845V43.9362H16.1149C21.9836 43.9362 27.0369 40.4081 29.2784 35.361C30.3666 32.9118 33.5288 32.2484 35.4292 34.1395C37.3203 36.0213 38.4426 38.672 38.2845 41.5769C37.9993 46.7729 33.5536 50.7721 28.3483 50.7721H20.4273C19.6864 48.8748 17.789 47.5572 15.6003 47.7029C13.1666 47.861 11.1918 49.8917 11.0926 52.3253C10.9779 55.0907 13.1852 57.3663 15.9258 57.3663C17.9781 57.3663 19.7267 56.0859 20.4304 54.2847H28.3018C35.4726 54.2847 41.5459 48.6919 41.8032 41.5242C42.014 35.7051 38.4488 30.6735 33.3676 28.6893ZM15.9227 54.6443C14.7539 54.6443 13.8053 53.6956 13.8053 52.5268C13.8053 51.3581 14.7539 50.4094 15.9227 50.4094C17.0915 50.4094 18.0401 51.3581 18.0401 52.5268C18.0401 53.6956 17.0915 54.6443 15.9227 54.6443Z" fill="white"/>
</svg>
