<svg width="110" height="50" viewBox="0 0 110 50" fill="none" xmlns="http://www.w3.org/2000/svg">
<path d="M68.661 29.6964C68.661 30.3865 68.8328 30.8887 69.1766 31.2055C69.5203 31.5224 70.0251 31.7023 70.6856 31.7426C71.3462 31.7829 72.1679 31.7775 73.148 31.7238V36.3719C69.625 36.7693 67.1438 36.439 65.6992 35.3784C64.2546 34.3204 63.5349 32.4273 63.5349 29.6991V12.4976L68.6583 10.9482V29.6964H68.661Z" fill="#2C8ECE"/>
<path d="M57.3295 29.6964C57.3295 30.3865 57.5013 30.8887 57.845 31.2055C58.1887 31.5224 58.6935 31.7023 59.3541 31.7426C60.0147 31.7829 60.8364 31.7775 61.8165 31.7238V36.3719C58.2934 36.7693 55.8123 36.439 54.3677 35.3784C52.923 34.3204 52.2034 32.4273 52.2034 29.6991V12.4976L57.3268 10.9482V29.6964H57.3295Z" fill="#2C8ECE"/>
<path d="M70.6883 31.7425C70.0251 31.7023 69.523 31.525 69.1792 31.2055C68.8355 30.8886 68.6637 30.3838 68.6637 29.6964V18.4829C67.4177 18.448 66.1745 18.4373 64.9285 18.4883C64.464 18.5071 64.0021 18.542 63.5403 18.585V29.6991C63.5403 32.4273 64.2626 34.3204 65.7046 35.3783C67.1465 36.4363 69.6304 36.7693 73.1534 36.3719V31.7238C72.1733 31.7775 71.3516 31.7828 70.691 31.7425H70.6883Z" fill="url(#paint0_radial_4137_5665)"/>
<path d="M59.3568 31.7426C58.6935 31.7024 58.1914 31.5251 57.8477 31.2056C57.504 30.8887 57.3321 30.3839 57.3321 29.6965V19.5115C57.171 19.5383 57.0099 19.5652 56.8461 19.592C55.6431 19.7854 54.5825 19.9653 53.8628 20.4674C53.307 20.8541 52.7565 21.2488 52.2061 21.6462V29.6965C52.2061 32.4247 52.9284 34.3178 54.3703 35.3758C55.8123 36.4337 58.2961 36.7667 61.8191 36.3693V31.7212C60.839 31.7749 60.0174 31.7802 59.3568 31.74V31.7426Z" fill="url(#paint1_radial_4137_5665)"/>
<path d="M80.5001 28.5446C81.1875 31.0338 83.0564 32.2771 86.1014 32.2771C88.0617 32.2771 89.5439 31.6165 90.5509 30.29L94.6834 32.6745C92.7232 35.5074 89.8366 36.9252 86.0236 36.9252C82.7395 36.9252 80.1054 35.9316 78.1183 33.9446C76.1312 31.9575 75.1377 29.4549 75.1377 26.4367C75.1377 23.4185 76.1178 20.9481 78.078 18.9503C80.0382 16.9498 82.5516 15.9509 85.6235 15.9509C88.5369 15.9509 90.9402 16.9579 92.8333 18.9691C94.7264 20.983 95.6742 23.4722 95.6742 26.4367C95.6742 27.1 95.6071 27.8008 95.4755 28.5419H80.5001V28.5446ZM80.4195 24.5732H90.5482C90.2582 23.2225 89.654 22.2155 88.741 21.555C87.828 20.8944 86.7889 20.5614 85.6235 20.5614C84.246 20.5614 83.1074 20.9132 82.2079 21.6141C81.3083 22.3149 80.7122 23.3031 80.4195 24.5732Z" fill="#2C8ECE"/>
<path d="M98.4402 25.5263C98.5986 18.7327 102.216 15.3574 109.246 15.3574H110V20.838H108.212C105.271 20.838 103.803 22.3873 103.803 25.4458V36.3693H98.4402V25.5237V25.5263Z" fill="#2C8ECE"/>
<path d="M64.1176 17.1324C56.975 17.1324 50.2592 20.5265 46.0166 26.2729L43.7207 29.3797C43.2857 29.9758 42.7889 30.5209 42.2062 30.9694C40.4609 32.2985 38.6618 32.4543 36.7767 31.4554L47.0343 20.5507C46.5858 19.9465 46.1213 19.4175 45.638 18.9664C43.479 16.931 41.0167 15.9187 38.2563 15.9187C35.4959 15.9187 33.1114 16.9767 31.1136 19.1007C29.0084 21.3375 28.0175 23.8562 28.1276 26.6515C28.2404 29.4495 29.3897 31.8743 31.5674 33.9258C33.7639 35.9907 36.2665 36.9842 39.0753 36.901C41.0785 36.8366 43.0467 36.0659 44.8243 34.7582C45.9226 33.9499 46.857 32.9457 47.668 31.8501L49.7437 29.0306C53.1109 24.4684 58.4438 21.7778 64.1123 21.7778H70.2534C72.6002 21.7778 74.4987 19.8794 74.4987 17.5325V17.1378H64.1123L64.1176 17.1324ZM32.902 25.4647C33.0094 24.3288 33.5303 23.2574 34.4728 22.2558C35.273 21.4046 36.2263 20.8729 37.3353 20.6635C38.4416 20.4514 39.5855 20.7011 40.7697 21.4127L33.8257 28.7916C33.1034 27.7068 32.7919 26.5978 32.8993 25.462L32.902 25.4647Z" fill="#2C8ECE"/>
<path d="M28.4392 28.7837C28.9252 30.6983 29.9671 32.4114 31.5729 33.9205C32.0831 34.4012 32.612 34.8201 33.1545 35.1853C33.0256 33.0586 32.1072 31.1413 30.6867 29.7262C30.045 29.0898 29.2394 28.7917 28.4392 28.7837Z" fill="url(#paint2_radial_4137_5665)"/>
<path d="M64.1177 17.1324C56.975 17.1324 50.2593 20.5265 46.0166 26.2729L43.7208 29.3797C43.2858 29.9758 42.789 30.5209 42.2063 30.9694C40.4609 32.2985 38.6618 32.4543 36.7768 31.4554L47.0343 20.5507C46.5859 19.9465 46.1214 19.4175 45.638 18.9664C43.4791 16.931 41.0168 15.9187 38.2563 15.9187C35.4959 15.9187 33.1115 16.9767 31.1137 19.1007C29.5267 20.787 28.5734 22.6317 28.2485 24.6376C28.5332 24.8175 28.8285 24.9813 29.1427 25.1102C30.8935 25.8406 32.4187 26.9979 33.6055 28.4426C33.0417 27.4705 32.8027 26.4797 32.8993 25.47C33.0067 24.3342 33.5277 23.2628 34.4702 22.2612C35.2704 21.41 36.2236 20.8783 37.3326 20.6689C38.4389 20.4567 39.5828 20.7064 40.767 21.418L33.8633 28.7567C35.4154 30.7894 36.3042 33.3538 36.2048 36.125C36.1995 36.2753 36.1887 36.423 36.178 36.5734C37.1071 36.8204 38.0711 36.9305 39.078 36.901C41.0812 36.8366 43.0495 36.0659 44.8271 34.7582C45.9253 33.9499 46.8598 32.9457 47.6707 31.8501L49.7464 29.0306C53.1137 24.4684 58.4465 21.7778 64.115 21.7778H70.2561C72.603 21.7778 74.5014 19.8794 74.5014 17.5325V17.1378H64.115L64.1177 17.1324Z" fill="url(#paint3_radial_4137_5665)"/>
<path d="M86.0989 32.2796C83.0538 32.2796 81.1876 31.0363 80.4975 28.5471C80.4975 28.5471 79.8772 36.4282 89.254 36.5303C91.5096 35.9288 93.3167 34.6453 94.6781 32.677L90.5456 30.2925C89.5386 31.6163 88.0564 32.2796 86.0962 32.2796H86.0989Z" fill="url(#paint4_radial_4137_5665)"/>
<path d="M98.4402 27.492V36.3694H103.803V25.4459C103.803 22.3874 105.271 20.838 108.212 20.838C108.212 20.838 98.4402 20.7145 98.4402 27.492Z" fill="url(#paint5_radial_4137_5665)"/>
<path d="M5.40803 38.2112H0V0.15625H12.4514C17.5586 0.15625 21.7154 4.31297 21.7154 9.42026C21.7154 14.5275 17.5586 18.6843 12.4514 18.6843V14.0039C12.8783 14.0039 13.3402 13.4051 13.7242 13.2762C15.2547 12.7634 16.3073 11.12 16.3073 9.42026C16.3073 7.29356 14.5781 5.56428 12.4514 5.56428H5.40803V38.2112Z" fill="#2C8ECE"/>
<path d="M12.4513 0.15625H7.83007C7.83007 1.95803 7.79516 3.7625 7.7334 5.56428H12.4513C14.578 5.56428 16.3073 7.29356 16.3073 9.42026C16.3073 11.12 15.2547 12.7634 13.7241 13.2762C13.3401 13.4051 12.8783 14.0039 12.4513 14.0039V18.6843C17.5586 18.6843 21.7153 14.5275 21.7153 9.42026C21.7153 4.31297 17.5586 0.15625 12.4513 0.15625Z" fill="url(#paint6_radial_4137_5665)"/>
<path d="M28.9011 25.0052C27.4511 24.4386 26.2857 23.2839 25.7862 21.8071C24.0945 16.8018 19.2477 13.2734 13.7242 13.2734H8.57666V14.7906C8.57666 16.9388 10.3194 18.6815 12.4675 18.6815H13.7833C17.6071 18.6815 20.8669 21.6486 21.0119 25.4697C21.165 29.4868 17.94 32.803 13.9578 32.803H12.4675C10.3194 32.803 8.57666 34.5457 8.57666 36.6939V38.2111H13.9578C19.041 38.2111 23.4179 35.1553 25.3593 30.7838C26.3018 28.6624 29.0407 28.0878 30.6868 29.7258C32.3247 31.3557 33.2968 33.6516 33.1598 36.1676C32.9128 40.668 29.0622 44.132 24.5537 44.132H17.693C17.0512 42.4886 15.4079 41.3474 13.5121 41.4736C11.4042 41.6106 9.69371 43.3694 9.60778 45.4773C9.50843 47.8725 11.4203 49.8434 13.794 49.8434C15.5717 49.8434 17.0861 48.7344 17.6957 47.1743H24.5134C30.7243 47.1743 35.9847 42.3302 36.2076 36.122C36.3902 31.0818 33.3022 26.7237 28.9011 25.0052ZM13.7914 47.4858C12.779 47.4858 11.9574 46.6641 11.9574 45.6518C11.9574 44.6395 12.779 43.8178 13.7914 43.8178C14.8037 43.8178 15.6254 44.6395 15.6254 45.6518C15.6254 46.6641 14.8037 47.4858 13.7914 47.4858Z" fill="#2C8ECE"/>
<defs>
<radialGradient id="paint0_radial_4137_5665" cx="0" cy="0" r="1" gradientUnits="userSpaceOnUse" gradientTransform="translate(65.9785 13.1743) scale(22.5531 22.5532)">
<stop stop-color="#00367C" stop-opacity="0.8"/>
<stop offset="1" stop-color="#2C8ECE" stop-opacity="0"/>
</radialGradient>
<radialGradient id="paint1_radial_4137_5665" cx="0" cy="0" r="1" gradientUnits="userSpaceOnUse" gradientTransform="translate(52.2893 14.2995) scale(24.2046)">
<stop stop-color="#00367C" stop-opacity="0.8"/>
<stop offset="1" stop-color="#2C8ECE" stop-opacity="0"/>
</radialGradient>
<radialGradient id="paint2_radial_4137_5665" cx="0" cy="0" r="1" gradientUnits="userSpaceOnUse" gradientTransform="translate(38.9304 18.0025) scale(30.0932 30.0932)">
<stop stop-color="#00367C" stop-opacity="0.8"/>
<stop offset="1" stop-color="#2C8ECE" stop-opacity="0"/>
</radialGradient>
<radialGradient id="paint3_radial_4137_5665" cx="0" cy="0" r="1" gradientUnits="userSpaceOnUse" gradientTransform="translate(26.9596 35.0214) scale(21.957 21.957)">
<stop stop-color="#00367C" stop-opacity="0.8"/>
<stop offset="1" stop-color="#2C8ECE" stop-opacity="0"/>
</radialGradient>
<radialGradient id="paint4_radial_4137_5665" cx="0" cy="0" r="1" gradientUnits="userSpaceOnUse" gradientTransform="translate(76.0964 43.0017) scale(23.1385 23.1385)">
<stop stop-color="#00367C" stop-opacity="0.8"/>
<stop offset="1" stop-color="#2C8ECE" stop-opacity="0"/>
</radialGradient>
<radialGradient id="paint5_radial_4137_5665" cx="0" cy="0" r="1" gradientUnits="userSpaceOnUse" gradientTransform="translate(96.5981 9.86892) scale(28.568 28.568)">
<stop stop-color="#00367C" stop-opacity="0.8"/>
<stop offset="1" stop-color="#2C8ECE" stop-opacity="0"/>
</radialGradient>
<radialGradient id="paint6_radial_4137_5665" cx="0" cy="0" r="1" gradientUnits="userSpaceOnUse" gradientTransform="translate(14.6666 21.6595) scale(20.703 20.703)">
<stop stop-color="#00367C" stop-opacity="0.8"/>
<stop offset="1" stop-color="#2C8ECE" stop-opacity="0"/>
</radialGradient>
</defs>
</svg>
