<svg width="37" height="50" viewBox="0 0 37 50" fill="none" xmlns="http://www.w3.org/2000/svg">
<path d="M5.40803 38.2112H0V0.15625H12.4514C17.5586 0.15625 21.7154 4.31297 21.7154 9.42026C21.7154 14.5275 17.5586 18.6843 12.4514 18.6843V14.0039C12.8783 14.0039 13.3402 13.4051 13.7242 13.2762C15.2547 12.7634 16.3073 11.12 16.3073 9.42026C16.3073 7.29356 14.5781 5.56428 12.4514 5.56428H5.40803V38.2112Z" fill="#2C8ECE"/>
<path d="M12.4513 0.15625H7.83007C7.83007 1.95803 7.79516 3.7625 7.7334 5.56428H12.4513C14.578 5.56428 16.3073 7.29356 16.3073 9.42026C16.3073 11.12 15.2547 12.7634 13.7241 13.2762C13.3401 13.4051 12.8783 14.0039 12.4513 14.0039V18.6843C17.5586 18.6843 21.7153 14.5275 21.7153 9.42026C21.7153 4.31297 17.5586 0.15625 12.4513 0.15625Z" fill="url(#paint0_radial_4137_5679)"/>
<path d="M28.9011 25.0052C27.4511 24.4386 26.2857 23.2839 25.7862 21.8071C24.0945 16.8018 19.2477 13.2734 13.7242 13.2734H8.57666V14.7906C8.57666 16.9388 10.3194 18.6815 12.4675 18.6815H13.7833C17.6071 18.6815 20.8669 21.6486 21.0119 25.4697C21.165 29.4868 17.94 32.803 13.9578 32.803H12.4675C10.3194 32.803 8.57666 34.5457 8.57666 36.6939V38.2111H13.9578C19.041 38.2111 23.4179 35.1553 25.3593 30.7838C26.3018 28.6624 29.0407 28.0878 30.6868 29.7258C32.3247 31.3557 33.2968 33.6516 33.1598 36.1676C32.9128 40.668 29.0622 44.132 24.5537 44.132H17.693C17.0512 42.4886 15.4079 41.3474 13.5121 41.4736C11.4042 41.6106 9.69371 43.3694 9.60778 45.4773C9.50843 47.8725 11.4203 49.8434 13.794 49.8434C15.5717 49.8434 17.0861 48.7344 17.6957 47.1743H24.5134C30.7243 47.1743 35.9847 42.3302 36.2076 36.122C36.3902 31.0818 33.3022 26.7237 28.9011 25.0052ZM13.7914 47.4858C12.779 47.4858 11.9574 46.6641 11.9574 45.6518C11.9574 44.6395 12.779 43.8178 13.7914 43.8178C14.8037 43.8178 15.6254 44.6395 15.6254 45.6518C15.6254 46.6641 14.8037 47.4858 13.7914 47.4858Z" fill="#2C8ECE"/>
<defs>
<radialGradient id="paint0_radial_4137_5679" cx="0" cy="0" r="1" gradientUnits="userSpaceOnUse" gradientTransform="translate(14.6666 21.6595) scale(20.703 20.703)">
<stop stop-color="#00367C" stop-opacity="0.8"/>
<stop offset="1" stop-color="#2C8ECE" stop-opacity="0"/>
</radialGradient>
</defs>
</svg>
